<svg version="1.0" xmlns="http://www.w3.org/2000/svg" viewBox="0 0 512.000000 512.000000">
    <g transform="translate(0.000000,512.000000) scale(0.100000,-0.100000)">
        <path d="M2355 4950 c-496 -56 -926 -262 -1267 -607 -125 -126 -176 -188 -265 -321 -135 -201 -255 -495 -302 -737 -31 -164 -41 -293 -41 -537 l0 -219 -25 -24 c-32 -33 -78 -33 -110 0 -23 22 -25 32 -25 120 l0 95 -81 0 -81 0 4 -112 c4 -124 19 -168 75 -219 52 -49 92 -64 171 -63 l72 0 0 -752 c0 -823 1 -836 58 -973 71 -170 221 -317 391 -386 139 -57 88 -55 1631 -55 1549 0 1492 -2 1635 56 165 67 316 217 385 382 59 141 60 150 60 974 l0 754 73 0 c78 -1 118 14 170 63 56 51 71 95 75 219 l4 112 -81 0 -81 0 0 -95 c0 -88 -2 -98 -25 -120 -32 -33 -78 -33 -110 0 -25 24 -25 24 -25 237 0 252 -12 400 -46 562 -179 851 -859 1496 -1720 1631 -120 19 -409 27 -519 15z m442 -165 c718 -92 1314 -567 1567 -1247 30 -81 86 -283 86 -311 0 -4 -15 0 -32 9 -82 43 -104 44 -800 44 l-668 0 -6 28 c-12 52 -67 142 -111 183 -24 22 -74 55 -111 72 -61 29 -76 32 -162 32 -86 0 -101 -3 -160 -31 -36 -17 -86 -50 -111 -72 -45 -40 -100 -130 -113 -184 l-6 -28 -668 0 c-696 0 -718 -1 -799 -44 -18 -9 -33 -13 -33 -9 0 24 53 221 80 298 298 841 1163 1374 2047 1260z m-163 -1357 c45 -13 146 -105 146 -132 0 -14 -27 -16 -220 -16 -255 0 -255 0 -167 85 73 71 148 90 241 63z m1711 -335 c47 -25 86 -64 111 -113 13 -26 19 -64 22 -147 l4 -113 -1922 0 -1922 0 4 113 c3 83 9 121 22 147 34 65 87 110 156 131 14 4 803 7 1755 6 l1730 -2 40 -22z m135 -1403 c0 -586 -4 -885 -11 -920 l-11 -50 -85 0 c-76 0 -84 2 -79 17 23 75 26 159 26 726 l0 617 -80 0 -80 0 0 -619 c0 -529 -2 -625 -15 -662 -31 -87 63 -79 -920 -79 -738 0 -886 2 -961 15 -531 92 -942 496 -1045 1027 -16 86 -19 146 -19 448 l0 350 1640 0 1640 0 0 -870z" />
    </g>
</svg>
