<svg xmlns="http://www.w3.org/2000/svg" viewBox="0 0 512.000000 512.000000">
    <g transform="translate(0.000000,512.000000) scale(0.100000,-0.100000)">
        <path d="M2380 4629 c-246 -22 -540 -104 -752 -210 -815 -409 -1272 -1317 -1117 -2219 69 -405 261 -777 559 -1084 185 -191 352 -313 585 -426 490 -239 1042 -274 1568 -99 988 328 1584 1363 1372 2383 -80 387 -270 744 -550 1034 -431 449 -1041 676 -1665 621z m330 -319 c238 -21 420 -73 635 -180 183 -91 303 -178 450 -325 536 -536 673 -1317 351 -2000 -232 -492 -682 -848 -1216 -963 -572 -124 -1157 41 -1578 443 -578 551 -716 1386 -346 2095 83 159 174 280 319 425 197 198 408 330 665 416 247 82 474 110 720 89z" />
        <path d="M2495 3576 c-103 -46 -126 -180 -44 -258 53 -51 110 -59 176 -27 145 72 107 283 -54 296 -28 2 -61 -3 -78 -11z" />
        <path d="M2480 3088 c-18 -13 -43 -36 -54 -51 -21 -28 -21 -34 -21 -717 0 -683 0 -689 21 -717 73 -98 195 -98 268 0 21 28 21 34 21 716 l0 688 -29 37 c-51 67 -143 86 -206 44z" />
    </g>
</svg>
